<svg xmlns="http://www.w3.org/2000/svg" viewBox="0 0 24 24" width="24" height="24"><title>Png 48px Solid - 70 Basic Icons</title><g transform="matrix(.5467 0 0 .5467 -1.093 -1.12)"><path d="M43.9 16.4H14.1c-1.1 0-2-.9-2-2s.9-2 2-2h29.8c1.1 0 2 .9 2 2s-.9 2-2 2zM43.9 26.4H14.1c-1.1 0-2-.9-2-2s.9-2 2-2h29.8c1.1 0 2 .9 2 2s-.9 2-2 2zM43.9 36.4H14.1c-1.1 0-2-.9-2-2s.9-2 2-2h29.8c1.1 0 2 .9 2 2s-.9 2-2 2z"/><circle cx="5" cy="14" r="3"/><circle cx="5" cy="24" r="3"/><circle cx="5" cy="34" r="3"/></g></svg>