<svg id="_x31_0" xmlns="http://www.w3.org/2000/svg" viewBox="0 0 512 512" style="width:32px;height:32px"><style>.st0{fill:#374149}</style><path class="st0" d="M329.81 287.359a93.498 93.498 0 0 1-2.082 6.512l-.348 1.039c-1.91 5.558-4.774 10.414-7.55 14.32a133.928 133.928 0 0 0 11.281 6.336l1.129.606c33.934 17.273 49.555 25.519 56.934 32.285 7.551 6.942 14.926 18.226 20.657 31.676.086.176.172.347.258.613 34.457-1.914 66.043-6.602 92.863-13.546 6.16-1.558 9.981-7.547 8.852-13.797-3.993-22.301-14.321-40.352-21.524-46.954-5.641-5.117-30.809-17.874-52.332-28.808-15.707-8.074-24.473-15.102-26.992-17.36v-21.09c1.129-.434 2.258-1.301 3.301-2.43 3.211-3.554 5.898-7.633 7.203-11.367 2.863-7.898 5.207-17.442 5.554-19.961.086-.262.086-.43.086-.695 1.125.347 2.258.523 3.121.523 11.371 0 15.973-23.172 16.664-29.336.695-6.164-4.77-10.324-6.77-11.977.434-.953.957-2.43 1.477-4.078 1.129-3.469 2.953-8.68 4.164-17.703 1.305-9.894-1.734-21.699-7.894-28.985-7.813-9.289-20.137-18.316-25.254-18.316-8.16-14.754-18.66-24.301-38.102-25.688-1.214 0-2.343 0-3.644-.086h-.262c-16.141 0-44.348 15.274-55.367 35.062-3.473 6.336-6.164 11.801-7.898 17.094-.696 2.086-1.301 4.164-1.734 6.25a77.78 77.78 0 0 1 5.55 7.113c7.985 4.082 15.278 10.07 20.832 15.454 1.734 1.648 3.817 3.816 5.898 6.16l1.215 1.386c4.168 5.035 7.55 10.938 9.894 17.446 2.515 6.336 3.992 13.797 4.254 21.086.172 3.649 0 7.469-.519 10.938-.523 3.821-1.129 7.379-1.824 10.414-.176.867-.348 1.652-.52 2.43 3.73 7.465 4.25 14.492 3.645 20.051-1.911 17.879-9.286 38.098-24.216 47.383zM102.084 380.309c5.902-13.887 13.363-25.168 21.004-32.024 7.114-6.507 22.734-14.84 56.672-32.113l1.039-.606c4.129-2.11 7.598-4.114 10.519-5.856.164-.09.383-.214.547-.3l-.008-.016a7.46 7.46 0 0 1 .137-.078c-3.297-4.507-5.902-9.461-7.637-14.406 0 0-2.516-7.375-2.516-7.551-12.758-8.07-21.266-25.254-23.695-49.121-.519-5.555-.086-12.406 3.473-19.352-.262-1.305-.867-5.902-.867-5.902-1.215-8.766-1.301-16.402-.262-23.953.121-1.118.32-2.23.508-3.344a51.06 51.06 0 0 1 .578-2.894c.25-1.11.493-2.218.825-3.309 1.301-5.293 3.297-10.586 6.16-16.664 1.476-3.21 3.21-6.418 5.121-9.98.086-.086.086-.172.176-.258v-.957l5.031-6.942c6.683-9.109 15.882-17.445 26.035-24.129-1.129-2.426-2.43-4.77-4.078-6.766-.086-.262-.262-.438-.434-.606-7.809-9.289-20.218-18.316-25.254-18.316-8.246-14.754-18.746-24.301-38.188-25.688-1.129 0-2.343 0-3.558-.086h-.258c-16.145 0-44.348 15.274-55.371 35.062-10.934 19.786-13.449 30.89-7.898 55.715.61 1.648 1.043 3.125 1.562 4.078-1.91 1.653-6.77 4.34-6.16 10.414.606 6.164 4.598 30.898 15.882 30.898 1.016 0 2.122-.18 3.223-.512.027-.004.046-.004.074-.007.175 2 1.214 7.55 3.297 13.187.695 1.996 1.562 4.598 2.515 7.289 1.301 3.821 3.992 8.074 7.293 11.633 1.039 1.039 2.168 1.906 3.383 2.34v21.09c-2.516 2.258-11.371 9.286-26.988 17.36-21.524 10.934-46.606 23.781-52.246 28.808C14.517 313.049 4.102 331.1.197 353.401c-1.129 6.25 2.687 12.238 8.851 13.797 26.73 6.859 58.496 11.546 92.859 13.546.091-.178.091-.264.177-.435z" fill="rgba(54,65,72,.85098)"/><path class="st0" d="M219.673 321.422c-2.488 2.297-11.378 9.328-27.011 17.34-21.493 10.992-46.602 23.789-52.168 28.871-4.348 3.906-9.821 12.019-14.363 22.664-.977 2.347-1.954 4.789-2.832 7.379-.832 2.339-1.61 4.781-2.246 7.324-.879 3.078-1.562 6.25-2.149 9.527-1.074 6.25 2.734 12.258 8.84 13.824 35.805 9.129 80.207 14.555 128.325 14.555 48.062 0 92.418-5.426 128.175-14.504 6.153-1.566 9.965-7.625 8.84-13.875a111.913 111.913 0 0 0-2.148-9.527c-.684-2.543-1.418-4.985-2.298-7.324-.828-2.59-1.804-5.032-2.832-7.379-4.496-10.645-9.965-18.707-14.312-22.664-5.566-5.133-30.774-17.926-52.27-28.871-15.676-8.058-24.52-15.043-27.058-17.34V300.371c1.171-.442 2.293-1.274 3.37-2.446.196-.195.391-.39.535-.637 2.981-3.363 5.422-7.179 6.645-10.742.145-.441.293-.882.438-1.324 2.687-7.617 4.738-16.214 5.133-18.656.047-.246.047-.442.094-.637 1.125.344 2.199.488 3.129.488 11.332 0 15.973-23.203 16.606-29.308.688-6.153-4.785-10.352-6.789-11.966.442-.98.98-2.441 1.515-4.152.051-.098.098-.246.149-.39.68-2.102 1.656-4.938 2.539-8.891.535-2.347 1.023-5.133 1.465-8.402.293-2 .34-4.157.242-6.25a40.414 40.414 0 0 0-2.684-13.094c-1.32-3.614-3.176-6.934-5.422-9.625l-.051-.047c-1.562-1.855-3.32-3.758-5.179-5.473-7.325-7.082-15.969-12.797-20.028-12.797-8.202-14.75-18.706-24.328-38.148-25.645-1.172-.046-2.344-.046-3.614-.094h-.246c-14.653 0-39.371 12.598-51.973 29.793v.047a48.01 48.01 0 0 0-3.371 5.23c-1.66 3.023-3.176 5.859-4.446 8.547-2.05 4.347-3.613 8.402-4.59 12.453a29.717 29.717 0 0 0-1.176 5.867c-.828 5.664-.683 11.672.442 18.902v.047a131.53 131.53 0 0 0 1.809 9.672c.046.05.046.101.046.148.586 1.711 1.074 3.172 1.614 4.152-1.953 1.614-6.789 4.301-6.203 10.402.633 6.153 4.59 30.871 15.922 30.871 1.028 0 2.102-.144 3.27-.488h.004c.199 1.957 1.223 7.523 3.324 13.187.586 1.661 1.266 3.762 2 5.958.149.445.294.836.442 1.273 1.223 3.52 3.516 7.332 6.398 10.602.293.34.637.684.93 1.028 1.074 1.121 2.196 1.953 3.367 2.394V321.422z" fill="rgba(54,65,72,.85098)"/></svg>