<svg xmlns="http://www.w3.org/2000/svg" viewBox="0 0 512 512"><g fill="#a0bf7c"><circle cx="115.2" cy="268.8" r="25.6"/><circle cx="256" cy="396.8" r="25.6"/><circle cx="115.2" cy="396.8" r="25.6"/><circle cx="396.8" cy="268.8" r="25.6"/><circle cx="256" cy="268.8" r="25.6"/><circle cx="396.8" cy="396.8" r="25.6"/></g><path d="M12.8 499.2V166.4h486.4v332.8H12.8zm384-128c-14.114 0-25.6 11.486-25.6 25.6s11.486 25.6 25.6 25.6 25.6-11.486 25.6-25.6-11.486-25.6-25.6-25.6zm-140.8 0c-14.114 0-25.6 11.486-25.6 25.6s11.486 25.6 25.6 25.6 25.6-11.486 25.6-25.6-11.486-25.6-25.6-25.6zm-140.8 0c-14.114 0-25.6 11.486-25.6 25.6s11.486 25.6 25.6 25.6 25.6-11.486 25.6-25.6-11.486-25.6-25.6-25.6zm281.6-128c-14.114 0-25.6 11.486-25.6 25.6s11.486 25.6 25.6 25.6 25.6-11.486 25.6-25.6-11.486-25.6-25.6-25.6zm-140.8 0c-14.114 0-25.6 11.486-25.6 25.6s11.486 25.6 25.6 25.6 25.6-11.486 25.6-25.6-11.486-25.6-25.6-25.6zm-140.8 0c-14.114 0-25.6 11.486-25.6 25.6s11.486 25.6 25.6 25.6 25.6-11.486 25.6-25.6-11.486-25.6-25.6-25.6z" fill="#e9ebef"/><path fill="#ff877f" d="M12.8 64h486.4v102.4H12.8z"/><g fill="#573a32"><path d="M486.4 51.2h-51.2V38.4c0-21.205-17.195-38.4-38.4-38.4s-38.4 17.195-38.4 38.4v12.8H153.6V38.4c0-21.205-17.195-38.4-38.4-38.4S76.8 17.195 76.8 38.4v12.8H25.6C11.46 51.2 0 62.66 0 76.8v409.6C0 500.54 11.46 512 25.6 512h460.8c14.14 0 25.6-11.46 25.6-25.6V76.8c0-14.14-11.46-25.6-25.6-25.6zM384 38.4c0-7.057 5.743-12.8 12.8-12.8s12.8 5.743 12.8 12.8v12.8H384V38.4zm-281.6 0c0-7.057 5.743-12.8 12.8-12.8S128 31.343 128 38.4v12.8h-25.6V38.4zm384 448H25.6V179.2h460.8v307.2zm0-332.8H25.6V76.8h460.8v76.8z"/><path d="M115.2 435.2c21.205 0 38.4-17.195 38.4-38.4s-17.195-38.4-38.4-38.4-38.4 17.195-38.4 38.4 17.195 38.4 38.4 38.4zm0-51.2c7.057 0 12.8 5.743 12.8 12.8s-5.743 12.8-12.8 12.8-12.8-5.743-12.8-12.8 5.743-12.8 12.8-12.8zM256 435.2c21.205 0 38.4-17.195 38.4-38.4s-17.195-38.4-38.4-38.4-38.4 17.195-38.4 38.4 17.195 38.4 38.4 38.4zm0-51.2c7.057 0 12.8 5.743 12.8 12.8s-5.743 12.8-12.8 12.8-12.8-5.743-12.8-12.8S248.943 384 256 384zM396.8 435.2c21.205 0 38.4-17.195 38.4-38.4s-17.195-38.4-38.4-38.4-38.4 17.195-38.4 38.4 17.195 38.4 38.4 38.4zm0-51.2c7.057 0 12.8 5.743 12.8 12.8s-5.743 12.8-12.8 12.8-12.8-5.743-12.8-12.8 5.743-12.8 12.8-12.8zM115.2 307.2c21.205 0 38.4-17.195 38.4-38.4s-17.195-38.4-38.4-38.4-38.4 17.195-38.4 38.4 17.195 38.4 38.4 38.4zm0-51.2c7.057 0 12.8 5.743 12.8 12.8s-5.743 12.8-12.8 12.8-12.8-5.743-12.8-12.8 5.743-12.8 12.8-12.8zM256 307.2c21.205 0 38.4-17.195 38.4-38.4s-17.195-38.4-38.4-38.4-38.4 17.195-38.4 38.4 17.195 38.4 38.4 38.4zm0-51.2c7.057 0 12.8 5.743 12.8 12.8s-5.743 12.8-12.8 12.8-12.8-5.743-12.8-12.8S248.943 256 256 256zM396.8 307.2c21.205 0 38.4-17.195 38.4-38.4s-17.195-38.4-38.4-38.4-38.4 17.195-38.4 38.4 17.195 38.4 38.4 38.4zm0-51.2c7.057 0 12.8 5.743 12.8 12.8s-5.743 12.8-12.8 12.8-12.8-5.743-12.8-12.8 5.743-12.8 12.8-12.8z"/></g></svg>