<svg xmlns="http://www.w3.org/2000/svg" viewBox="0 0 466.705 466.705" width="512" height="512"><path d="M459.925 358.907L269.505 61.503a42.927 42.927 0 0 0-36.145-19.776 42.927 42.927 0 0 0-36.146 19.776L6.78 358.907a42.91 42.91 0 0 0-1.511 43.752 42.918 42.918 0 0 0 37.655 22.319h380.854a42.906 42.906 0 0 0 37.656-22.319 42.905 42.905 0 0 0-1.509-43.752zm-250.472-196.3c0-13.078 10.605-23.675 23.675-23.675 13.072 0 23.676 10.597 23.676 23.675v101.584c0 13.078-10.604 23.675-23.676 23.675-13.07 0-23.675-10.597-23.675-23.675V162.607zm23.229 211.006c-16.338 0-29.594-13.249-29.594-29.594 0-16.347 13.256-29.594 29.594-29.594 16.339 0 29.595 13.247 29.595 29.594-.001 16.345-13.256 29.594-29.595 29.594z" fill="#ebba16"/></svg>