<?xml version="1.0" encoding="UTF-8" standalone="no"?>
<svg
   xmlns:dc="http://purl.org/dc/elements/1.1/"
   xmlns:cc="http://creativecommons.org/ns#"
   xmlns:rdf="http://www.w3.org/1999/02/22-rdf-syntax-ns#"
   xmlns:svg="http://www.w3.org/2000/svg"
   xmlns="http://www.w3.org/2000/svg"
   xmlns:sodipodi="http://sodipodi.sourceforge.net/DTD/sodipodi-0.dtd"
   xmlns:inkscape="http://www.inkscape.org/namespaces/inkscape"
   version="1.1"
   x="0px"
   y="0px"
   viewBox="0 0 24 24"
   enable-background="new 0 0 100 100"
   xml:space="preserve"
   id="svg2"
   inkscape:version="0.91 r13725"
   sodipodi:docname="feta-pointer-right.svg"
   width="24"
   height="24"><metadata
     id="metadata16"><rdf:RDF><cc:Work
         rdf:about=""><dc:format>image/svg+xml</dc:format><dc:type
           rdf:resource="http://purl.org/dc/dcmitype/StillImage" /><dc:title></dc:title></cc:Work></rdf:RDF></metadata><defs
     id="defs14" /><sodipodi:namedview
     pagecolor="#ffffff"
     bordercolor="#666666"
     borderopacity="1"
     objecttolerance="10"
     gridtolerance="10"
     guidetolerance="10"
     inkscape:pageopacity="0"
     inkscape:pageshadow="2"
     inkscape:window-width="1858"
     inkscape:window-height="1178"
     id="namedview12"
     showgrid="false"
     inkscape:zoom="10.680141"
     inkscape:cx="21.421391"
     inkscape:cy="22.412118"
     inkscape:window-x="-8"
     inkscape:window-y="-8"
     inkscape:window-maximized="1"
     inkscape:current-layer="svg2" /><g
     id="g4"
     transform="matrix(0.26667012,0,0,0.26667012,-1.3333105,-1.3336615)"
     style="fill:#555555;fill-opacity:1"><path
       d="m 72.655,50.921 c 0.029,-0.056 0.062,-0.11 0.086,-0.168 0.026,-0.063 0.041,-0.128 0.06,-0.193 0.017,-0.059 0.038,-0.117 0.05,-0.177 0.012,-0.064 0.016,-0.129 0.022,-0.194 0.006,-0.063 0.015,-0.125 0.015,-0.188 0,-0.063 -0.009,-0.125 -0.015,-0.188 -0.006,-0.065 -0.009,-0.13 -0.022,-0.194 -0.012,-0.06 -0.032,-0.118 -0.05,-0.177 -0.019,-0.065 -0.035,-0.13 -0.06,-0.193 -0.024,-0.058 -0.056,-0.112 -0.086,-0.168 -0.031,-0.06 -0.059,-0.121 -0.097,-0.178 -0.037,-0.055 -0.083,-0.105 -0.125,-0.158 -0.037,-0.045 -0.067,-0.094 -0.108,-0.137 l -41.779,-43 C 29.775,4.815 28.51,4.797 27.718,5.567 26.926,6.337 26.907,7.603 27.677,8.395 L 68.101,50 27.676,91.606 c -0.77,0.792 -0.751,2.058 0.041,2.828 0.388,0.378 0.891,0.566 1.393,0.566 0.521,0 1.042,-0.203 1.435,-0.606 l 41.779,-43 c 0.042,-0.043 0.072,-0.091 0.108,-0.137 0.043,-0.052 0.089,-0.102 0.125,-0.158 0.039,-0.057 0.066,-0.118 0.098,-0.178 z"
       id="path6"
       inkscape:connector-curvature="0"
       style="fill:#555555;fill-opacity:1" /></g></svg>