<?xml version="1.0" encoding="UTF-8" standalone="no"?>
<svg
   xmlns:dc="http://purl.org/dc/elements/1.1/"
   xmlns:cc="http://creativecommons.org/ns#"
   xmlns:rdf="http://www.w3.org/1999/02/22-rdf-syntax-ns#"
   xmlns:svg="http://www.w3.org/2000/svg"
   xmlns="http://www.w3.org/2000/svg"
   xmlns:sodipodi="http://sodipodi.sourceforge.net/DTD/sodipodi-0.dtd"
   xmlns:inkscape="http://www.inkscape.org/namespaces/inkscape"
   version="1.1"
   x="0px"
   y="0px"
   width="24"
   height="24"
   viewBox="0 0 24 24"
   enable-background="new 0 0 100 100"
   xml:space="preserve"
   id="svg2"
   inkscape:version="0.91 r13725"
   sodipodi:docname="feta-trash-can.svg"><metadata
     id="metadata20"><rdf:RDF><cc:Work
         rdf:about=""><dc:format>image/svg+xml</dc:format><dc:type
           rdf:resource="http://purl.org/dc/dcmitype/StillImage" /><dc:title></dc:title></cc:Work></rdf:RDF></metadata><defs
     id="defs18" /><sodipodi:namedview
     pagecolor="#ffffff"
     bordercolor="#666666"
     borderopacity="1"
     objecttolerance="10"
     gridtolerance="10"
     guidetolerance="10"
     inkscape:pageopacity="0"
     inkscape:pageshadow="2"
     inkscape:window-width="1443"
     inkscape:window-height="852"
     id="namedview16"
     showgrid="false"
     fit-margin-top="0"
     fit-margin-left="0"
     fit-margin-right="0"
     fit-margin-bottom="0"
     inkscape:zoom="9.44"
     inkscape:cx="1.5831441"
     inkscape:cy="23.898893"
     inkscape:window-x="0"
     inkscape:window-y="0"
     inkscape:window-maximized="0"
     inkscape:current-layer="Your_Icon" /><g
     id="Captions"
     transform="translate(-13,-71.000001)" /><g
     id="Your_Icon"
     style="fill:#555555;fill-opacity:1"
     transform="matrix(0.35955056,0,0,0.35955056,-4.6741573,-10.157303)"><g
       id="g6"
       style="fill:#555555;fill-opacity:1"
       transform="matrix(0.75,0,0,0.75,9.2500002,23.749999)"><path
         d="m 82,19 -11,0 -4.583,0 -3.109,-7.461 0,0 C 62.581,9.829 61.357,8.543 59.942,7.588 58.516,6.649 56.858,6.013 55,6 L 43,6 c -1.873,0.012 -3.54,0.671 -4.947,1.647 -1.398,0.99 -2.588,2.331 -3.239,4.087 L 32.181,18.975 32.25,19 28,19 17,19 c -2.209,0 -4,1.791 -4,4 0,2.209 1.791,4 4,4 l 4,0 0,61 c -0.001,1.927 0.794,3.691 2.054,4.946 1.255,1.26 3.02,2.055 4.946,2.054 l 43,0 c 1.927,0.001 3.691,-0.794 4.946,-2.054 C 77.206,91.691 78.001,89.926 78,88 l 0,-61 4,0 c 2.209,0 4,-1.791 4,-4 0,-2.209 -1.791,-4 -4,-4 z M 40.452,13.785 c 0.1,-0.312 0.494,-0.85 1.042,-1.223 C 42.032,12.174 42.673,11.988 43,12 l 12,0 c 0.342,-0.013 1.03,0.181 1.612,0.581 0.593,0.384 1.037,0.945 1.156,1.265 l 0,0 2.148,5.154 -21.36,0 1.896,-5.215 z M 72,88 c -0.001,0.273 -0.105,0.509 -0.296,0.704 C 71.509,88.895 71.273,88.999 71,89 L 28,89 C 27.727,88.999 27.491,88.895 27.296,88.704 27.105,88.509 27.001,88.273 27,88 l 0,-61 45,0 0,61 z"
         id="path8"
         style="fill:#555555;fill-opacity:1"
         inkscape:connector-curvature="0" /><path
         d="m 36,82 c 1.657,0 3,-1.343 3,-3 l 0,-43 c 0,-1.657 -1.343,-3 -3,-3 -1.657,0 -3,1.343 -3,3 l 0,43 c 0,1.657 1.343,3 3,3 z"
         id="path10"
         style="fill:#555555;fill-opacity:1"
         inkscape:connector-curvature="0" /><path
         d="m 62,82 c 1.657,0 3,-1.343 3,-3 l 0,-43 c 0,-1.657 -1.343,-3 -3,-3 -1.657,0 -3,1.343 -3,3 l 0,43 c 0,1.657 1.343,3 3,3 z"
         id="path12"
         style="fill:#555555;fill-opacity:1"
         inkscape:connector-curvature="0" /><path
         d="m 49,82 c 1.657,0 3,-1.343 3,-3 l 0,-43 c 0,-1.657 -1.343,-3 -3,-3 -1.657,0 -3,1.343 -3,3 l 0,43 c 0,1.657 1.343,3 3,3 z"
         id="path14"
         style="fill:#555555;fill-opacity:1"
         inkscape:connector-curvature="0" /></g></g></svg>