<?xml version="1.0" encoding="utf-8"?>
<!-- Generator: Adobe Illustrator 15.1.0, SVG Export Plug-In . SVG Version: 6.00 Build 0)  -->
<!DOCTYPE svg PUBLIC "-//W3C//DTD SVG 1.1//EN" "http://www.w3.org/Graphics/SVG/1.1/DTD/svg11.dtd">
<svg version="1.1" id="Layer_1" xmlns="http://www.w3.org/2000/svg" xmlns:xlink="http://www.w3.org/1999/xlink" x="0px" y="0px"
	 width="795.9px" height="535.06px" viewBox="0 0 795.9 535.06" enable-background="new 0 0 795.9 535.06" xml:space="preserve">
<style>
	path { fill: #FFFFFF }
</style>
<g>
	<path d="M468.94,122.49l23.44,37.31v-37.22c0,0,2.64-1.85,9-1.85c6.44,0,9.07,1.85,9.07,1.85v64.66
		c0,0-2.54,1.86-8.98,1.86c-6.25,0-8.8-1.66-8.8-1.66l-23.53-37.31v37.11c0,0-2.64,1.86-9.09,1.86c-6.25,0-8.89-1.86-8.89-1.86
		v-64.66c0,0,2.45-1.85,9-1.85C466.4,120.74,468.94,122.49,468.94,122.49"/>
	<path d="M558.3,159.41h-17.09v16.51h24.71c0,0,1.86,2.05,1.86,6.54c0,4.59-1.86,6.65-1.86,6.65h-42.78v-68.37h40.83
		c0,0,1.95,2.06,1.95,6.65c0,4.49-1.95,6.64-1.95,6.64h-22.76v12.12h17.09c0,0,1.86,2.15,1.86,6.64
		C560.15,157.46,558.3,159.41,558.3,159.41"/>
	<path d="M589.74,187.25l-18.46-64.66c0,0,2.73-1.85,9.09-1.85c6.44,0,8.99,1.85,8.99,1.85l9.28,32.82
		c0.68,2.44,0.98,4.3,1.27,5.38c0-0.3,0.49-3.03,1.08-5.28l8.1-32.92c0,0,3.12-1.85,7.53-1.85c4.2,0,7.13,1.85,7.13,1.85l7.71,32.82
		l1.27,5.38c0-0.89,0.59-3.33,1.17-5.28l9.57-32.92c0.09,0,2.64-1.85,8.89-1.85c6.35,0,9.08,1.85,9.08,1.85l-18.75,64.66
		c0,0-2.64,1.76-8.59,1.86c-6.94,0-9.38-1.86-9.38-1.86l-7.33-29.98c-0.58-2.25-0.98-4.69-1.07-5.18l-1.18,5.18l-7.32,29.98
		c0,0-2.54,1.86-8.99,1.86C592.48,189.11,589.74,187.25,589.74,187.25"/>
	<path d="M463.27,207.47l8.01,14.06c2.74,4.79,4.21,10.16,4.4,10.84c0.2-0.68,1.56-5.95,4.4-10.84l8.2-14.06
		c0,0,2.44-1.76,8.39-1.76c6.74,0,9.58,2.24,9.58,2.24l-21.59,37.31v26.95c0,0-2.54,1.86-8.98,1.86c-6.36,0-8.89-1.86-8.89-1.86
		v-27.24l-21.59-37.02c0,0,2.94-2.24,9.67-2.24C460.63,205.71,463.27,207.47,463.27,207.47"/>
	<path d="M538.96,274.77c-23.05,0-33.11-13.48-33.11-34.77c0-21.3,10.06-34.97,33.11-34.97
		c22.96,0,33.11,13.67,33.11,34.97C572.07,261.28,561.92,274.77,538.96,274.77 M538.96,261.57c9.76,0,15.04-8.79,15.04-21.58
		c0-12.79-5.28-21.69-15.04-21.69c-9.77,0-15.03,8.89-15.03,21.69C523.93,252.79,529.19,261.57,538.96,261.57"/>
	<path d="M599.81,272.22c0,0-2.64,1.86-9.09,1.86c-6.35,0-8.89-1.86-8.89-1.86v-63.77c0,0,7.33-3.42,20.81-3.42
		c20.41,0,29.89,7.81,29.89,21.48c0,13.48-10.36,18.94-11.62,19.05l15.82,26.28c-1.94,1.26-7.32,2.24-10.93,2.24
		c-4.69,0-8.4-1.66-8.4-1.66l-11.91-20.8c-0.69-1.47-1.67-2.54-3.32-2.54h-2.35V272.22z M604.89,218.31c-2.94,0-5.08,0.59-5.08,0.59
		v16.99h4.88c7.12,0,9.87-4.98,9.87-8.79C614.55,222.12,611.13,218.31,604.89,218.31"/>
	<path d="M705.87,271.73c0,0-4.59,2.35-12.01,2.35c-6.35,0-8.99-1.66-8.99-1.66l-23.14-31.45v31.25
		c0,0-2.44,1.86-8.89,1.86c-6.45,0-9.08-1.86-9.08-1.86v-64.65c0,0,2.63-1.86,9.08-1.86c6.35,0,8.89,1.86,8.89,1.86v30.38
		l22.37-30.48c0,0,2.63-1.76,8.98-1.76c7.32,0,10.26,2.44,10.26,2.44l-21.88,29.8L705.87,271.73z"/>
	<path d="M497.46,295.37c1.26,6.25-2.06,11.23-5.77,12.5c-3.61-2.43-9.37-4.59-15.42-4.59
		c-6.16,0-9.58,2.34-9.58,5.67c0,3.13,2.83,4.2,10.35,6.65l9.38,3.02c10.07,3.32,16.31,8.41,16.31,19.14
		c0,12.41-8.2,21.98-28.13,21.98c-13.97,0-22.57-4.69-25.69-7.81c-0.98-4.59,1.56-10.36,5.19-12.21c3.12,2.35,12.4,6.84,21.87,6.84
		c5.67,0,8.8-2.05,8.8-5.77c0-2.63-1.67-4.29-5.57-5.57l-15.72-4.78c-8.41-2.64-14.75-8.69-14.75-18.56
		c0-14.07,9.57-21.87,27.24-21.87C487.2,290,493.75,293.03,497.46,295.37"/>
	<path d="M507.61,303.97c0,0-1.86-1.95-1.86-6.64c0-4.49,1.86-6.64,1.86-6.64h53.04c0,0,1.86,2.05,1.86,6.64
		c0,4.59-1.86,6.64-1.86,6.64h-17.58v53.23c0,0-2.53,1.86-8.88,1.86c-6.54,0-9.18-1.86-9.18-1.86v-53.23H507.61z"/>
	<path d="M599.12,292.44l26.38,64.46c0,0-2.63,2.16-9.29,2.16c-6.15,0-8.58-1.76-8.58-1.76l-4.79-11.24h-25.1
		l-4.5,11.24c0,0-2.53,1.76-8.59,1.76c-6.64,0-9.48-2.16-9.48-2.16l26.38-64.46c0,0,2.43-1.76,8.78-1.76
		C596.68,290.68,599.12,292.44,599.12,292.44 M583,332.97h14.56l-4.88-11.72c-0.98-2.34-2.25-7.13-2.35-7.62
		c-0.19,0.49-1.66,5.27-2.53,7.62L583,332.97z"/>
	<path d="M620.12,303.97c0,0-1.86-1.95-1.86-6.64c0-4.49,1.86-6.64,1.86-6.64h53.03c0,0,1.85,2.05,1.85,6.64
		c0,4.59-1.85,6.64-1.85,6.64h-17.59v53.23c0,0-2.53,1.86-8.88,1.86c-6.54,0-9.18-1.86-9.18-1.86v-53.23H620.12z"/>
	<path d="M718.37,329.36h-17.09v16.51h24.71c0,0,1.86,2.05,1.86,6.54c0,4.6-1.86,6.65-1.86,6.65h-42.78v-68.37h40.83
		c0,0,1.95,2.05,1.95,6.64c0,4.49-1.95,6.64-1.95,6.64h-22.76v12.11h17.09c0,0,1.85,2.16,1.85,6.65
		C720.22,327.4,718.37,329.36,718.37,329.36"/>
	<path d="M443.79,467.01c-0.99,0-2.05-0.19-3.08-0.75c-1.54-0.84-2.61-2.24-3.01-3.93
		c-0.46-1.95,0.05-4.12,1.45-6.12l0.45-0.66c0.46-0.67,0.93-1.34,1.46-1.94c0.6-0.67,1.21-1.14,1.72-1.47
		c-0.37-2.03-0.24-3.79-0.04-5.39c0.15-1.33,0.49-2.45,0.77-3.35c0.12-0.38,0.24-0.77,0.34-1.19c0.75-3.17,1.23-6.1,1.49-8.97
		c0.23-2.57,0.2-2.61-0.25-3.19c-1.38-1.71-3.71-2.93-6.18-4.23c-1.19-0.63-2.37-1.26-3.51-1.94c-7.15-4.37-14.3-8.74-21.45-13.12
		l-2.52-1.54c-0.58-0.35-1.59-0.86-2.79-1.49c-7.9-4.08-13.14-7.08-14.01-11.38c-0.13-0.63-0.79-2.14-1.26-2.87
		c-0.31-0.02-1.13-0.08-1.69-0.13c-2.6-0.21-6.52-0.54-9.64-3.83c-0.63-0.67-1.25-1.3-1.83-1.89c-4.36-4.45-8.13-8.29-8.62-17.83
		c-0.07-1.25-0.06-2.53-0.04-3.82c0.04-3.95-0.01-6.45-1.61-8.06c-0.76-0.76-2.03-1.28-3.51-1.88c-1.81-0.73-3.88-1.57-5.79-3.16
		c-0.59-0.5-1.26-1.22-2.01-2.06c-0.79-0.91-1.99-2.27-2.81-2.55c-6.08-2.11-13.37-2.29-20.94-2.29l-250.17-0.19
		c-1.57,0-2.98,0.16-4.34,0.32c-3.03,0.35-6.47,0.74-9.25-1.73c-2.69-2.4-3.06-6.07-3.07-9.36l-0.02-17.47
		c0-0.92,0.26-1.83,0.75-2.61c2.31-3.7,6.79-5.68,10.75-7.43c1.48-0.65,3.01-1.33,3.83-1.87c2.13-1.41,4.04-3.3,6.08-5.31
		c1.52-1.5,3.1-3.05,4.86-4.49c2.42-1.99,5.18-3.45,7.86-4.85c2.31-1.21,4.47-2.36,5.97-3.61c1.06-0.89,1.85-2.36,2.79-4.07
		c1-1.86,2.15-3.95,3.94-5.79c1.93-1.98,4.36-3.35,6.5-4.55c4.91-2.77,4.8-3.06,4.02-4.91c-0.36-0.86-0.71-1.61-1.02-2.27
		c-1.44-3.1-2.67-5.77-1.84-11.31c0.08-0.54,0.19-1.11,0.29-1.7c0.19-1,0.54-2.85,0.34-3.39c0,0-0.1-0.08-0.3-0.18
		c-0.17-0.09-0.78-0.08-1.23-0.07c-1.43-0.01-4.06,0.06-6.04-2.17c-1.98-2.22-1.87-5.17-1.55-7.5c0.31-2.34,0.15-3.85,0-5.18
		c-0.61-5.63,1.28-8.27,7.83-10.86c19.58-7.78,35.44-10.42,49.91-8.3c0.85,0.12,2.03-0.11,3.38-0.39c2.04-0.41,4.56-0.91,7.34-0.37
		l15.38,2.91c6.29,1.2,9.38,2.38,14.1,6.7c2.42,2.21,3.4,1.97,7.59,0.48c2.1-0.74,4.48-1.58,7.38-1.97
		c4.73-0.62,9.16-0.21,13.44,0.2c1.92,0.18,3.86,0.37,5.81,0.44c2.18,0.08,4.93-0.93,7.61-1.91c1.18-0.43,2.34-0.86,3.46-1.21
		c2.5-0.77,4.84-1.13,7.11-1.47c1.12-0.18,2.24-0.35,3.37-0.57c0.08-0.14,0.16-0.29,0.25-0.44c0.36-0.63,0.74-1.28,1.23-1.96
		c2.08-2.84,5.07-4.65,7.47-6.12l1-0.61c2.57-1.6,4.84-3.07,6.62-4.89c3.23-3.33,7.52-3.09,10.37-2.96c0.99,0.06,2.5,0.13,2.95-0.07
		c1.9-0.83,0.23-6.69-0.77-10.2c-0.7-2.46-1.3-4.58-1.43-6.52c-0.35-5.47,2.68-9.34,5.12-12.43c1.91-2.44,3.07-4.03,3.03-5.58
		c0-0.3-0.1-0.71-0.23-1.09c-1.67,0.8-4.35,1.83-7.42,0.42c-4.92-2.26-7.62-10.27-6.12-14.82c1.25-3.78,5.09-6.21,7.89-8l1.01-0.65
		c2.39-1.6,4.93-2.96,7.37-4.26c3.41-1.81,6.63-3.52,9.16-5.74c1.07-0.94,2.08-1.87,3.06-2.78c2.21-2.04,4.48-4.15,7.17-6.02
		c0.19-0.69,0.36-1.97,0.47-2.81c0.21-1.58,0.44-3.23,1.01-4.65c2.74-6.83,9.44-12.16,15.35-16.87c1.96-1.56,3.82-3.04,5.28-4.38
		c0.92-0.85,1.83-1.71,2.74-2.56c4.38-4.11,8.9-8.36,14.4-11.76c4.46-2.74,10.28-6.16,15.71-8.2c7.18-2.69,10.58-2.5,17.36-2.1
		l1.26,0.07c12.65,0.72,25.77,0.39,38.46,0.07c6.37-0.16,12.72-0.33,19.03-0.37c1.7-0.01,4.29-0.32,7.01-0.66
		c9.03-1.11,19.27-2.38,25.08,2.64c2.44,2.1,3.77,5.04,3.85,8.5c0.06,2.73-1.08,4.78-1.91,6.28c-0.27,0.48-0.67,1.21-0.72,1.46
		c0.02-0.08,0.29,0.32,0.48,0.61c0.93,1.38,2.64,3.94,1.95,7.77c-0.26,1.47-0.69,3.04-1.13,4.62c-0.55,2-1.13,4.08-1.17,5.65
		c-0.09,2.73-2.43,4.93-5.11,4.77c-2.73-0.09-4.87-2.37-4.78-5.11c0.1-2.73,0.86-5.51,1.54-7.95c0.36-1.29,0.71-2.55,0.93-3.76
		c-0.06,0-0.26-0.23-0.42-0.49c-0.8-1.2-2.16-3.21-2.16-6.17c0-2.71,1.14-4.74,1.96-6.23c0.25-0.45,0.63-1.12,0.69-1.36
		c-0.04-0.78-0.29-1-0.43-1.12c-2.5-2.16-12.2-0.97-17.41-0.31c-3.03,0.37-5.89,0.72-8.16,0.74c-6.25,0.04-12.55,0.19-18.84,0.35
		c-12.89,0.33-26.22,0.68-39.26-0.07l-1.28-0.08c-6.38-0.37-8.09-0.47-13.31,1.49c-4.69,1.76-10.24,5.04-14,7.36
		c-4.66,2.87-8.62,6.6-12.82,10.54c-0.94,0.88-1.87,1.76-2.82,2.63c-1.74,1.59-3.72,3.17-5.81,4.84
		c-4.96,3.95-10.57,8.41-12.34,12.83c-0.12,0.36-0.28,1.51-0.38,2.27c-0.42,3.18-0.95,7.15-4.19,9.31
		c-2.29,1.54-4.35,3.46-6.54,5.47c-1.04,0.97-2.12,1.96-3.26,2.96c-3.39,2.98-7.27,5.04-11.03,7.04c-2.33,1.24-4.53,2.41-6.5,3.73
		c-0.35,0.25-0.78,0.51-1.23,0.79c-0.93,0.59-2.98,1.89-3.71,2.72c0.06,0.56,0.29,1.37,0.57,2.02c1.21-0.58,2.9-1.29,4.94-1.12
		c5.78,0.49,8.56,6.88,8.68,11.27c0.14,5.22-2.79,8.96-5.15,11.94c-1.94,2.48-3.13,4.08-3.03,5.71c0.06,0.86,0.59,2.76,1.07,4.42
		c1.76,6.18,5.03,17.67-4.76,21.96c-2.6,1.15-5.29,1-7.46,0.89c-0.92-0.05-2.46-0.12-2.89,0.06c-2.44,2.53-5.35,4.42-8.35,6.3
		l-1.09,0.67c-1.83,1.11-3.72,2.27-4.64,3.52c-0.24,0.32-0.43,0.67-0.61,0.99c-0.92,1.62-2.46,4.33-6.53,5.18
		c-1.41,0.3-2.8,0.52-4.2,0.73c-1.99,0.31-3.88,0.59-5.67,1.14c-0.96,0.31-1.97,0.67-2.99,1.05c-3.42,1.26-7.31,2.7-11.42,2.51
		c-2.13-0.08-4.24-0.28-6.35-0.48c-3.9-0.38-7.6-0.73-11.2-0.24c-1.88,0.25-3.58,0.85-5.38,1.49c-4.5,1.59-10.67,3.77-17.55-2.51
		c-3.04-2.77-4.26-3.33-9.29-4.28l-15.37-2.91c-0.91-0.17-2.14,0.07-3.56,0.36c-1.87,0.37-4.19,0.82-6.72,0.47
		c-12.71-1.86-26.94,0.59-44.84,7.71c-0.73,0.29-1.26,0.52-1.64,0.7c0.16,1.37,0.36,3.33,0.13,6.04c1.05,0.14,2.23,0.45,3.47,1.1
		c7.03,3.7,5.71,10.75,5.08,14.15c-0.09,0.46-0.18,0.92-0.24,1.37c-0.39,2.59-0.15,3.12,1.03,5.65c0.36,0.77,0.75,1.63,1.17,2.63
		c4.29,10.26-3.9,14.87-8.31,17.34c-1.63,0.92-3.33,1.86-4.25,2.82c-0.84,0.87-1.57,2.21-2.34,3.63c-1.22,2.26-2.61,4.82-5.1,6.91
		c-2.32,1.94-5.07,3.4-7.72,4.79c-2.34,1.24-4.56,2.4-6.22,3.76c-1.39,1.15-2.74,2.47-4.16,3.88c-2.29,2.25-4.64,4.58-7.58,6.52
		c-1.52,1-3.35,1.81-5.28,2.66c-1.58,0.69-4.25,1.87-5.61,2.88l0.03,15.58c0,0.57,0.02,1.04,0.04,1.4c0.42-0.04,0.86-0.09,1.24-0.13
		c1.49-0.17,3.34-0.38,5.48-0.38l250.17,0.19c8.11,0,16.66,0.23,24.16,2.83c3.28,1.12,5.54,3.68,7.02,5.36
		c0.34,0.4,0.64,0.76,0.92,1c0.71,0.59,1.85,1.05,3.16,1.58c2.07,0.84,4.64,1.88,6.83,4.08c4.6,4.62,4.53,10.46,4.48,15.15
		c-0.02,1.08-0.03,2.15,0.02,3.19c0.31,5.8,1.92,7.44,5.81,11.41c0.62,0.63,1.27,1.3,1.96,2.02c0.48,0.51,1.55,0.62,3.26,0.77
		c2.07,0.17,4.64,0.37,6.9,2.06c2.46,1.83,4.13,5.9,4.74,8.02c1.54,1.48,6.94,4.28,9.06,5.37c1.47,0.76,2.7,1.41,3.41,1.84
		l2.52,1.54c7.14,4.36,14.28,8.73,21.43,13.1c0.95,0.57,1.94,1.1,2.95,1.63c3.12,1.63,6.64,3.49,9.29,6.8
		c2.9,3.61,2.7,6.88,2.43,9.76c0.42-0.79,0.88-1.55,1.42-2.28c0.98-1.38,2.12-2.42,3.14-3.35c1.01-0.92,1.7-1.57,1.94-2.08
		c-0.19-0.45-0.64-1.2-0.94-1.71c-1.2-2.03-2.84-4.82-2.07-8.11c0.3-1.27,1.09-2.37,2.19-3.06c0.42-0.26,1.31-0.76,2.47-1.39
		c1.62-0.88,5.71-3.13,8.21-4.8c-3.71-8.11-2.48-18.09-1.38-27.02c0.34-2.76,0.67-5.36,0.82-7.7c0.16-2.73,2.47-4.8,5.23-4.63
		c2.73,0.17,4.8,2.51,4.63,5.24c-0.15,2.64-0.5,5.4-0.86,8.32c-1.04,8.45-2.23,18.02,1.58,23.5c0.89,1.28,1.19,2.89,0.83,4.43
		c-0.76,3.25-4.1,5.7-12.92,10.58c1.15,1.96,2.54,4.57,2.05,7.66c-0.08,0.47-0.18,0.91-0.3,1.34c2.47-0.89,5.04-1.72,7.77-2.49
		c10.28-2.93,21.09-4.23,35-4.23c6.15,0,11.63-1.96,17.44-4.02c4.59-1.64,9.36-3.33,14.68-4.13c4.5-0.69,6.83,0.76,8.83,2.31
		c0.67,0.52,1.16,0.88,2,1.21c2.35,0.92,5.08,0.62,8.24,0.29c3.2-0.35,6.82-0.74,10.51,0.21c2.2,0.57,3.73,2.57,3.71,4.84
		c-0.09,8.6-11.65,12.15-17.21,13.86l-5.29,1.66c-3.99,1.27-7.98,2.53-12.02,3.68c-1.83,0.51-3.63,1.02-5.45,1.48
		c-2.09,0.53-4.23,1.72-6.48,2.97c-2.31,1.29-4.7,2.62-7.44,3.52c-4.75,1.54-9.61,2.35-15.79,2.6c-1.77,0.08-3.49,0.86-5.3,1.66
		c-2.67,1.21-6.01,2.72-9.74,1.5c-1.59-0.19-7.8,1.92-10.78,2.95c-2.35,0.8-4.37,1.48-5.97,1.86c-5.49,1.28-11.08,2.29-16.48,3.27
		l-3.79,0.69c-3.29,0.6-6.59,1.23-9.86,1.96l-0.4,0.11C446.54,466.61,445.23,467.01,443.79,467.01 M453.85,442.89
		c-0.12,0.53-0.24,1.05-0.37,1.59c-0.15,0.63-0.33,1.23-0.51,1.83c-0.2,0.65-0.35,1.16-0.41,1.59c-0.14,1.25-0.16,1.93-0.01,2.61
		c0.38,1.85,0.3,3.38-0.02,4.64c1.13-0.22,2.27-0.44,3.41-0.65l3.83-0.68c5.28-0.96,10.74-1.94,15.99-3.17
		c1.1-0.26,3.01-0.9,5.02-1.58c7.75-2.64,13.13-4.27,17.04-2.99c0.26-0.05,1.67-0.69,2.61-1.11c2.34-1.06,5.25-2.37,8.93-2.53
		c5.24-0.22,9.28-0.87,13.13-2.14c1.85-0.6,3.72-1.64,5.7-2.75c2.71-1.5,5.52-3.07,8.88-3.92c1.72-0.43,3.45-0.92,5.16-1.39
		c3.94-1.13,7.85-2.37,11.74-3.61l3.61-1.13c-1.38-0.19-2.77-0.53-4.17-1.08c-2.16-0.84-3.52-1.89-4.42-2.58
		c-0.22-0.17-0.41-0.34-0.63-0.47c-0.01,0.03-0.26,0.03-0.72,0.09c-4.38,0.66-8.49,2.12-12.83,3.67
		c-6.35,2.26-12.89,4.59-20.76,4.59c-12.97,0-22.92,1.19-32.29,3.86c-8.41,2.38-15.26,5.32-20.94,8.99
		c-1.67,1.08-3.81,1.05-5.46-0.05C454.73,444.09,454.21,443.53,453.85,442.89"/>
	<path d="M561.35,443.81c0,0-0.13-0.15-0.13-0.52c0-0.36,0.13-0.52,0.13-0.52h6.8c0,0,0.13,0.16,0.13,0.52
		c0,0.36-0.13,0.52-0.13,0.52h-2.68v8.12c0,0-0.2,0.15-0.7,0.15c-0.52,0-0.73-0.15-0.73-0.15v-8.12H561.35z"/>
	<path d="M574.59,451.53c-0.11,0.07-0.29,0.15-0.6,0.15c-0.21,0-0.47-0.04-0.57-0.15l-2.07-5.21
		c-0.12-0.28-0.32-0.84-0.33-0.92c0,0.04-0.05,0.77-0.08,0.98l-0.38,5.54c0,0-0.19,0.15-0.71,0.15c-0.52,0-0.73-0.15-0.73-0.15
		l0.72-9.01c0,0,0.2-0.14,0.69-0.14c0.54,0,0.75,0.14,0.75,0.14l2.4,6.07l0.32,1c0.01-0.04,0.22-0.7,0.33-1l2.41-6.07
		c0,0,0.21-0.14,0.76-0.14c0.48,0,0.67,0.14,0.67,0.14l0.72,9.01c0,0-0.21,0.15-0.73,0.15c-0.51,0-0.69-0.15-0.69-0.15l-0.4-5.55
		l-0.08-0.98c0,0.01-0.22,0.69-0.32,0.92L574.59,451.53z"/>
</g>
</svg>
