<svg xmlns="http://www.w3.org/2000/svg" width="24" height="24"><g fill="#d60015" stroke="#d60015" stroke-width="2.834"><path d="M12 23.626C5.58 23.626.374 18.42.374 12 .374 5.58 5.58.374 12 .374 18.42.374 23.626 5.58 23.626 12c0 6.42-5.206 11.626-11.626 11.626zm0-21.138A9.506 9.506 0 0 0 2.488 12 9.506 9.506 0 0 0 12 21.512 9.506 9.506 0 0 0 21.512 12 9.506 9.506 0 0 0 12 2.488z" stroke-width=".7487994800000001"/><path d="M3.966 5.99l1.495-1.495 14.572 14.572-1.494 1.495z" stroke-width=".74877114"/></g></svg>