<svg xmlns="http://www.w3.org/2000/svg" viewBox="0 0 512 512" style="width:32px;height:32px"><path d="M75.796 227.198l12.782 6.669 15.854 8.314a10.066 10.066 0 0 1 5.305 7.611l6.875 52.504 1.326 10.038a10.063 10.063 0 0 0 9.334 8.733l10.1.645 24.208 1.571a10.065 10.065 0 0 1 9.417 10.046v3.134c0 2.565.977 5.031 2.728 6.896l3.37 3.584 24.227 25.626-2.966 3.358 1.567 6.602-11.786 18.051a7.247 7.247 0 0 0-.738 10.546l3.811 4.112c2.591 2.799 3.326 6.798 1.974 10.362a385.323 385.323 0 0 0-18.325 64.915c-1.196 6.07-2.146 12.203-3.014 18.356-.156.982-.36 1.998-.512 2.967h.023c-.004.054-.015.106-.023.16H431.548c5.863 0 10.488-4.988 10.038-10.835l-5.488-71.686a63.111 63.111 0 0 0-16.644-38.072l-33.468-36.091a7.422 7.422 0 0 1-.371-.418l-5.203-6.274-18.669-23.438.106-.121-12.872-25.795a10.023 10.023 0 0 1-1.063-4.495v-18.207c0-.934.133-1.865.391-2.768l9.569-33.46c.262-.914.649-1.79 1.157-2.595l34.222-54.35a10.054 10.054 0 0 0 1.548-5.362v-69.93c0-2.017-.602-3.983-1.736-5.652l-56.444-83.24a10.05 10.05 0 0 0-7.31-4.366L184.287.053a10.05 10.05 0 0 0-7.028 1.935L121.53 43.43a10.07 10.07 0 0 0-2.662 13.201l3.6 6.094L129.97 76.1l-.039.153-19.583 66.416-.899 3.131v13.442c0 2.17-.7 4.28-1.998 6.02l-26.424 35.426-8.638 11.559c-3.715 4.968-2.092 12.083 3.407 14.951zm142.421 243.716l-10.468 20.455a10.071 10.071 0 0 1-8.963 5.477h-4.534l-1.896-.067 23.626-45.988 1.958 8.447 1.122 4.8a10.076 10.076 0 0 1-.845 6.876zm112.576-157.931l3.303 6.547.054.11.672 1.399-89.634 94.278-10.296 10.796-.954 1.032-.466.399-1.77-7.474-1.45-6.262-3.358-14.271-1.458-6.211-1.846-8.002-.782-3.241a30.99 30.99 0 0 1 1.341-1.458c46.833-50.803 90.195-64.23 106.644-67.642zM106.012 204.582l23.817-31.877a10.08 10.08 0 0 0 2.002-6.024v-16.242c0-.962.137-1.919.41-2.842l13.177-44.73a10.067 10.067 0 0 1 11.558-7.043l17.566 3.377a10.07 10.07 0 0 1 8.166 9.796l.169 18.223a10.08 10.08 0 0 0 3.053 7.126l17.656 17.16a10.071 10.071 0 0 1 3.053 7.22v42.056c0 6.86 6.708 11.71 13.224 9.561l12.184-4.022a10.067 10.067 0 0 0 6.582-7.016l3.51-13.431a10.064 10.064 0 0 1 3.901-5.656l27.292-19.423 7.052-.223 1.798 66.084a10.054 10.054 0 0 0 2.627 6.508l35.602 39.042c.47.516.884 1.074 1.235 1.673l2.494 4.23a10.056 10.056 0 0 1 1.395 5.113c0 4.503-2.97 8.521-7.322 9.686-20.408 5.464-55.662 19.689-94.47 56.307-3.995 3.768-10.327 3.49-14.107-.497l-13.502-14.247a10.07 10.07 0 0 1-2.759-6.923v-15.245c0-5.312-4.124-9.71-9.429-10.046l-36.861-2.346a10.067 10.067 0 0 1-9.342-8.732l-7.357-55.87a10.057 10.057 0 0 0-5.324-7.611l-15.643-8.166c-5.498-2.868-7.121-9.978-3.407-14.95z" fill="#374149"/></svg>