<?xml version="1.0" encoding="UTF-8" standalone="no"?>
<svg
   xmlns:dc="http://purl.org/dc/elements/1.1/"
   xmlns:cc="http://creativecommons.org/ns#"
   xmlns:rdf="http://www.w3.org/1999/02/22-rdf-syntax-ns#"
   xmlns:svg="http://www.w3.org/2000/svg"
   xmlns="http://www.w3.org/2000/svg"
   xmlns:sodipodi="http://sodipodi.sourceforge.net/DTD/sodipodi-0.dtd"
   xmlns:inkscape="http://www.inkscape.org/namespaces/inkscape"
   version="1.1"
   x="0px"
   y="0px"
   viewBox="0 0 24 24"
   enable-background="new 0 0 100 95.844"
   xml:space="preserve"
   id="svg2"
   inkscape:version="0.91 r13725"
   sodipodi:docname="star-filled.svg"
   width="24"
   height="24"><metadata
     id="metadata14"><rdf:RDF><cc:Work
         rdf:about=""><dc:format>image/svg+xml</dc:format><dc:type
           rdf:resource="http://purl.org/dc/dcmitype/StillImage" /><dc:title /></cc:Work></rdf:RDF></metadata><defs
     id="defs12" /><sodipodi:namedview
     pagecolor="#ffffff"
     bordercolor="#666666"
     borderopacity="1"
     objecttolerance="10"
     gridtolerance="10"
     guidetolerance="10"
     inkscape:pageopacity="0"
     inkscape:pageshadow="2"
     inkscape:window-width="1858"
     inkscape:window-height="1178"
     id="namedview10"
     showgrid="false"
     inkscape:zoom="5.5716272"
     inkscape:cx="10.607422"
     inkscape:cy="23.260347"
     inkscape:window-x="-8"
     inkscape:window-y="-8"
     inkscape:window-maximized="1"
     inkscape:current-layer="svg2" /><path
     d="m 21.549475,9.855762 0,0 0,0 M 11.999124,1.2171541 c -0.736235,0 -1.390566,0.4745476 -1.617151,1.1756803 l -1.872989,5.7616221 -6.0586359,0 c -0.7362347,0 -1.3905655,0.4745475 -1.6171512,1.1759055 -0.2286108,0.700008 0.021601,1.467519 0.6172041,1.901114 l 4.9023063,3.562593 -1.8729884,5.762522 c -0.2286107,0.700008 0.021601,1.467519 0.6172042,1.901115 0.2988141,0.21691 0.6502806,0.32514 0.9999471,0.32514 0.3514666,0 0.7031582,-0.10823 0.9999472,-0.32514 l 4.9023066,-3.562368 4.902307,3.562368 c 0.296789,0.21691 0.64848,0.32514 0.999947,0.32514 0.349666,0 0.701132,-0.10823 0.999946,-0.32514 0.595603,-0.433596 0.845591,-1.201107 0.617205,-1.90224 l -1.872988,-5.761397 4.904106,-3.561468 C 23.14525,10.799906 23.395461,10.032395 23.166851,9.331262 22.938241,8.6301291 22.285935,8.1553566 21.549475,8.1553566 l -6.060211,0 -1.872989,-5.7625222 C 13.387665,1.6917017 12.735359,1.2180541 11.999124,1.2171541 l 0,0 z"
     id="path4"
     inkscape:connector-curvature="0"
     style="opacity:0.99999999;fill:#ebc816;fill-opacity:0.63529414;stroke:#444444;stroke-width:1.50008011;stroke-miterlimit:4;stroke-dasharray:none;stroke-opacity:1" /></svg>