<svg xmlns="http://www.w3.org/2000/svg" width="39.09" height="32" viewBox="156.955 2486.65 39.09 32" enable-background="new 156.955 2486.65 39.09 32"><g><path d="M185.32 2508.455v4.787c0 .975-.798 1.772-1.773 1.772h-21.274c-.975 0-1.772-.798-1.772-1.772v-21.274c0-.975.8-1.773 1.773-1.773h18.88l3.104-3.103c-.798-.266-1.596-.442-2.48-.442h-17.73c-3.9 0-7.092 3.19-7.092 7.09v17.73c0 3.9 3.19 7.092 7.092 7.092h17.73c3.9 0 7.09-3.19 7.09-7.092v-6.56l-3.547 3.545z" fill="#aaa"/></g><g><path d="M195.78 2491.082c.354.355.354.887 0 1.24l-19.502 19.5c-.354.356-.887.356-1.24 0l-10.46-10.458c-.354-.354-.354-.886 0-1.24l4.165-4.166c.355-.355.887-.355 1.242 0l5.052 5.05c.354.357.887.357 1.24.002l14.096-14.095c.354-.353.886-.353 1.24 0l4.166 4.168z" fill="#007681"/></g></svg>