<svg xmlns="http://www.w3.org/2000/svg" width="26.247" height="32" viewBox="0 0 26.24719 32" enable-background="new 0 0 100 100"><g fill="#555"><g><path d="M24.81 4.674h-5.604l-1.118-2.682c-.26-.615-.7-1.078-1.21-1.42C16.365.23 15.768.004 15.1 0h-4.313c-.674.004-1.273.24-1.78.592-.502.356-.93.838-1.164 1.47l-.946 2.603.024.01H1.44C.644 4.674 0 5.317 0 6.11c0 .795.644 1.44 1.438 1.44h1.438v21.93c0 .694.286 1.328.74 1.78.45.453 1.085.738 1.777.738h15.46c.694 0 1.328-.285 1.78-.74.452-.45.738-1.084.738-1.777V7.55h1.44c.793 0 1.437-.643 1.437-1.438 0-.794-.644-1.438-1.438-1.438zM9.87 2.8c.036-.113.178-.307.375-.44.193-.14.424-.207.542-.203H15.1c.124-.004.37.065.58.21.214.137.374.34.416.454l.773 1.854H9.19L9.87 2.8zm11.343 26.683c0 .098-.037.183-.106.253-.07.07-.155.106-.253.107H5.394c-.1 0-.184-.038-.254-.107-.07-.07-.106-.155-.106-.253V7.55h16.18v21.933z"/><path d="M8.27 27.326c.595 0 1.078-.483 1.078-1.08v-15.46c0-.595-.483-1.078-1.078-1.078-.596 0-1.08.483-1.08 1.08v15.46c0 .595.484 1.078 1.08 1.078z"/><path d="M17.618 27.326c.596 0 1.08-.483 1.08-1.08v-15.46c0-.595-.484-1.078-1.08-1.078-.596 0-1.08.483-1.08 1.08v15.46c0 .595.484 1.078 1.08 1.078z"/><path d="M12.944 27.326c.596 0 1.078-.483 1.078-1.08v-15.46c0-.595-.482-1.078-1.078-1.078-.596 0-1.08.483-1.08 1.08v15.46c0 .595.484 1.078 1.08 1.078z"/></g></g></svg>