<svg xmlns="http://www.w3.org/2000/svg" width="100" height="100"><path fill="#fff" d="M87.53 80.03l-24.6-24.6c3.34-4.58 5.32-10.2 5.32-16.3 0-.3-.04-.6-.1-.9.06-.3.1-.6.1-.92 0-15.35-12.5-27.84-27.85-27.84-.28 0-.54.04-.8.08-.27-.04-.53-.08-.8-.08-15.36 0-27.86 12.5-27.86 27.85 0 .33.04.62.1.92-.06.3-.1.6-.1.92C10.94 54.5 23.44 67 38.8 67c.27 0 .53-.04.8-.08.26.04.52.08.8.08 5.2 0 10.07-1.46 14.24-3.96l24.94 24.94c1.1 1.1 2.54 1.65 3.98 1.65s2.88-.55 3.98-1.65c2.2-2.2 2.2-5.76 0-7.95zM39.6 55.83c-.27-.03-.53-.07-.8-.07-9.16 0-16.6-7.45-16.6-16.6 0-.33-.06-.62-.1-.92.04-.3.1-.6.1-.93 0-9.14 7.44-16.6 16.6-16.6.27 0 .53-.04.8-.08.26.04.52.08.8.08 9.16 0 16.6 7.46 16.6 16.62 0 .3.05.6.1.9-.05.3-.1.6-.1.93 0 9.16-7.44 16.6-16.6 16.6-.28 0-.54.05-.8.1z"/></svg>