<svg xmlns="http://www.w3.org/2000/svg" width="64" height="64"><path fill="#09464C" d="M53.33 0H10.67C4.8 0 0 4.8 0 10.67v42.66C0 59.2 4.8 64 10.67 64h42.66C59.2 64 64 59.2 64 53.33V10.67C64 4.8 59.2 0 53.33 0zM16 16h32c.57 0 1.13.12 1.63.35L32 36.93 14.37 16.35c.5-.23 1.06-.35 1.63-.35zm-4 28V20c0-.08 0-.17 0-.25l11.74 13.68-11.6 11.6c-.1-.33-.14-.68-.14-1.03zm36 4H16c-.35 0-.7-.05-1.03-.14l11.38-11.38 5.65 6.6 5.65-6.6 11.38 11.38c-.33.1-.68.14-1.03.14zm4-4c0 .35-.05.7-.14 1.03l-11.6-11.6L52 19.75c0 .08 0 .17 0 .25v24z"/></svg>