<svg xmlns="http://www.w3.org/2000/svg" width="64" height="64"><path fill="#09464C" d="M64 12.15c-2.35 1.04-4.88 1.75-7.54 2.07 2.7-1.63 4.8-4.2 5.77-7.27-2.53 1.5-5.34 2.6-8.34 3.2-2.4-2.56-5.8-4.16-9.6-4.16C37.07 6 31.2 11.86 31.2 19.1c0 1.03.12 2.04.34 3-10.9-.55-20.6-5.78-27.06-13.72-1.13 1.94-1.78 4.2-1.78 6.6 0 4.55 2.32 8.57 5.84 10.93-2.15-.07-4.18-.66-5.95-1.64 0 .04 0 .1 0 .15 0 6.36 4.53 11.67 10.53 12.88-1.1.3-2.26.46-3.46.46-.84 0-1.66-.1-2.47-.25 1.68 5.22 6.52 9 12.27 9.12-4.5 3.52-10.15 5.62-16.3 5.62-1.07 0-2.1-.07-3.14-.2C5.8 55.84 12.7 58 20.13 58 44.28 58 57.5 38 57.5 20.66c0-.57-.03-1.14-.05-1.7 2.57-1.85 4.8-4.17 6.55-6.8z"/></svg>