<?xml version="1.0" encoding="utf-8"?>
<!-- Generator: Adobe Illustrator 22.0.1, SVG Export Plug-In . SVG Version: 6.00 Build 0)  -->
<svg version="1.1" id="Layer_1" xmlns="http://www.w3.org/2000/svg" xmlns:xlink="http://www.w3.org/1999/xlink" x="0px" y="0px"
	 viewBox="0 0 915 600" style="enable-background:new 0 0 915 600;" xml:space="preserve">
<style type="text/css">
	.st0{fill:#015E66;}
	.st1{fill:none;stroke:#015E66;stroke-width:15;stroke-linecap:round;stroke-linejoin:round;stroke-miterlimit:10;}
</style>
<g id="FIND">
	<g>
		<path class="st0" d="M600.6,15c46.1,0,89.4,17.9,122,50.5c32.6,32.6,50.5,75.9,50.5,122s-17.9,89.4-50.5,122
			c-32.6,32.6-75.9,50.5-122,50.5s-89.4-17.9-122-50.5s-50.5-75.9-50.5-122s17.9-89.4,50.5-122S554.5,15,600.6,15 M600.6,0
			C497,0,413.1,83.9,413.1,187.5S497,375,600.6,375s187.5-83.9,187.5-187.5S704.1,0,600.6,0L600.6,0z"/>
	</g>
	<g>
		<path class="st0" d="M600.6,47.5c37.4,0,72.6,14.6,99,41c26.4,26.4,41,61.6,41,99s-14.6,72.6-41,99c-26.4,26.4-61.6,41-99,41
			s-72.6-14.6-99-41c-26.4-26.4-41-61.6-41-99s14.6-72.6,41-99C528,62.1,563.2,47.5,600.6,47.5 M600.6,32.5
			c-85.6,0-155,69.4-155,155s69.4,155,155,155s155-69.4,155-155S686.2,32.5,600.6,32.5L600.6,32.5z"/>
	</g>
	<path class="st1" d="M450.5,336.7c14.2,16.8,0.5,28.4-16.3,42.6L193.1,583.6c-16.8,14.2-42.2,12.1-56.4-4.7l-0.3-0.4
		c-14.2-16.8-12.1-42.2,4.7-56.4L382.2,318c16.8-14.2,30.5-25.8,44.7-9.1"/>
</g>
</svg>
