<?xml version="1.0" encoding="utf-8"?>
<!-- Generator: Adobe Illustrator 20.1.0, SVG Export Plug-In . SVG Version: 6.00 Build 0)  -->
<svg version="1.1" id="Layer_1" xmlns="http://www.w3.org/2000/svg" xmlns:xlink="http://www.w3.org/1999/xlink" x="0px" y="0px"
	 viewBox="0 0 915 600" style="enable-background:new 0 0 915 600;" xml:space="preserve">
<style type="text/css">
	.st0{fill:#015E66;}
	.st1{fill:none;stroke:#015E66;stroke-width:15;stroke-linecap:round;stroke-linejoin:round;stroke-miterlimit:10;}
</style>
<g id="PMT">
	<g id="_x31__1_">
		<path class="st0" d="M363.6,494.2v43.3h-43.4v-43.3H363.6 M373.6,479.2h-63.4c-2.8,0-5,2.3-5,5v63.3c0,2.8,2.3,5,5,5h63.4
			c2.8,0,5-2.3,5-5v-63.3C378.6,481.5,376.4,479.2,373.6,479.2L373.6,479.2z"/>
		<path class="st0" d="M852.4,527.4v10.1h-148v-10.1H852.4 M862.4,512.4h-168c-2.8,0-5,2.3-5,5v30.1c0,2.8,2.3,5,5,5h168
			c2.8,0,5-2.3,5-5v-30.1C867.4,514.7,865.2,512.4,862.4,512.4L862.4,512.4z"/>
		<path class="st1" d="M908.4,300.9v242.8c0,27.1-22.2,49.3-49.4,49.3H310.8c-27.2,0-49.4-22.2-49.4-49.3V300.9H908.4z"/>
		<path class="st1" d="M261.4,253.1v-9.8c0-27.1,22.2-49.3,49.4-49.3H859c27.2,0,49.4,22.2,49.4,49.3v9.8H261.4z"/>
	</g>
	<g id="_x32_">
		<path class="st0" d="M197.8,479.2l14.4,40.8l-40.9,14.5l-14.4-40.8L197.8,479.2 M203.9,461.4c-0.6,0-1.1,0.1-1.7,0.3l-59.8,21.2
			c-2.6,0.9-4,3.8-3,6.4l21.1,59.6c0.7,2,2.7,3.3,4.7,3.3c0.6,0,1.1-0.1,1.7-0.3l59.8-21.2c2.6-0.9,4-3.8,3-6.4l-21.1-59.6
			C207.9,462.7,206,461.4,203.9,461.4L203.9,461.4z"/>
		<polyline class="st1" points="490.8,170.5 646.9,115.2 664.4,164.9 		"/>
		<path class="st1" d="M236.1,570.4l-55.2,19.5c-25.6,9.1-54-4.4-63-30L36.9,331l192.7-68.2"/>
		<path class="st1" d="M14,266.1l-3.3-9.2c-9-25.6,4.5-53.9,30.1-63L557.6,11.1c25.6-9.1,54,4.4,63,30l3.3,9.2L14,266.1z"/>
	</g>
</g>
</svg>
