<?xml version="1.0" encoding="utf-8"?>
<!-- Generator: Adobe Illustrator 20.1.0, SVG Export Plug-In . SVG Version: 6.00 Build 0)  -->
<svg version="1.1" id="Layer_1" xmlns="http://www.w3.org/2000/svg" xmlns:xlink="http://www.w3.org/1999/xlink" x="0px" y="0px"
	 viewBox="0 0 915 600" style="enable-background:new 0 0 915 600;" xml:space="preserve">
<style type="text/css">
	.st0{fill:none;stroke:#015E66;stroke-width:15;stroke-linecap:round;stroke-linejoin:round;stroke-miterlimit:10;}
	.st1{fill:#015E66;}
</style>
<g id="PC">
	<path class="st0" d="M400.3,494.2c-5.4,22.9-16.1,52-16.1,52s-44.6,25.1-44.6,24.9c-34.3,23.2,11.1,21.9,11.1,21.9h107.1h107.1
		c0,0,45.4,1.3,11.1-21.9c0,0.3-44.6-24.9-44.6-24.9s-10.7-29.1-16.1-52"/>
	<path class="st1" d="M742.5,61.5v344.2H173.3V61.5H742.5 M742.9,46.1h-570c-8.3,0-15,6.8-15,15v345c0,8.3,6.8,15,15,15h570
		c8.3,0,15-6.8,15-15v-345C757.9,52.9,751.2,46.1,742.9,46.1L742.9,46.1z"/>
	<path class="st1" d="M785.9,15c3.6,0,6.6,3,6.6,6.6v424c0,3.7-3,6.6-6.6,6.6H129.1c-3.6,0-6.6-3-6.6-6.6v-424c0-3.7,3-6.6,6.6-6.6
		L785.9,15 M785.9,0H129.1c-11.9,0-21.6,9.7-21.6,21.6v424c0,11.9,9.7,21.6,21.6,21.6h656.8c11.9,0,21.6-9.7,21.6-21.6v-424
		C807.5,9.7,797.8,0,785.9,0L785.9,0z"/>
</g>
</svg>
