<?xml version="1.0" encoding="utf-8"?>
<!-- Generator: Adobe Illustrator 20.1.0, SVG Export Plug-In . SVG Version: 6.00 Build 0)  -->
<svg version="1.1" id="Layer_1" xmlns="http://www.w3.org/2000/svg" xmlns:xlink="http://www.w3.org/1999/xlink" x="0px" y="0px"
	 viewBox="0 0 915 600" style="enable-background:new 0 0 915 600;" xml:space="preserve">
<style type="text/css">
	.st0{fill:none;stroke:#015E66;stroke-width:15;stroke-linecap:round;stroke-miterlimit:3;}
	.st1{fill:#015E66;}
	.st2{fill:none;stroke:#015E66;stroke-width:15;stroke-linecap:round;stroke-miterlimit:10;}
</style>
<line class="st0" x1="107.5" y1="593" x2="807.5" y2="593"/>
<path class="st1" d="M638,24.3l24.2,30.9L674,70.3l11.8-15.1l9.2-11.7V585H220V42.6l10.3,12.8l11.8,14.7l11.7-14.9L278,24.3
	l24.2,30.9L314,70.3l11.8-15.1L350,24.3l24.2,30.9L386,70.3l11.8-15.1L422,24.3l24.2,30.9L458,70.3l11.8-15.1L494,24.3l24.2,30.9
	L530,70.3l11.8-15.1L566,24.3l24.2,30.9L602,70.3l11.8-15.1L638,24.3 M710,0l-36,46L638,0l-36,46L566,0l-36,46L494,0l-36,46L422,0
	l-36,46L350,0l-36,46L278,0l-36,46L205,0v600h505V0L710,0z"/>
<path class="st2" d="M505,168.3c-1.2-2.1-11.4-26.9-45.1-27.9c-17.5-0.5-40.9,8-47.8,25.2c-1,2.4-6.2,14.8,0.4,24.8
	c13.7,20.8,79.6,16.8,93.8,38.9c0.7,1.1,6.1,13.1,1.3,25.2c-7.5,19.1-34.3,23.6-47.8,23.5c-33.3-0.3-51.5-24.6-54.4-28.8 M459.8,113
	v27.4 M459.8,278v35"/>
<line class="st2" x1="276.5" y1="387" x2="638.5" y2="387"/>
<line class="st2" x1="276.5" y1="453" x2="638.5" y2="453"/>
<line class="st2" x1="276.5" y1="523" x2="638.5" y2="523"/>
</svg>
